<mxfile host="www.draw.io" modified="2019-12-17T03:57:26.306Z" agent="Mozilla/5.0 (Macintosh; Intel Mac OS X 10_14_6) AppleWebKit/537.36 (KHTML, like Gecko) Chrome/78.0.3904.108 Safari/537.36" etag="UFq507Fwdj8LgD41yiej" version="12.4.2" type="github" pages="1">
  <diagram id="mfJZM29MXfskJ7teZx2q" name="Page-1">
    <mxGraphModel dx="946" dy="536" grid="1" gridSize="10" guides="1" tooltips="1" connect="1" arrows="1" fold="1" page="1" pageScale="1" pageWidth="827" pageHeight="1169" math="0" shadow="0">
      <root>
        <mxCell id="0"/>
        <mxCell id="1" parent="0"/>
        <mxCell id="ExKD6gIADf4nn5UVvq4f-3" value="" style="edgeStyle=orthogonalEdgeStyle;rounded=0;orthogonalLoop=1;jettySize=auto;html=1;" parent="1" source="ExKD6gIADf4nn5UVvq4f-1" target="ExKD6gIADf4nn5UVvq4f-2" edge="1">
          <mxGeometry relative="1" as="geometry"/>
        </mxCell>
        <mxCell id="ExKD6gIADf4nn5UVvq4f-1" value="react-children.js&lt;br&gt;" style="rounded=0;whiteSpace=wrap;html=1;" parent="1" vertex="1">
          <mxGeometry x="20" y="45" width="120" height="60" as="geometry"/>
        </mxCell>
        <mxCell id="ExKD6gIADf4nn5UVvq4f-8" value="" style="edgeStyle=orthogonalEdgeStyle;rounded=0;orthogonalLoop=1;jettySize=auto;html=1;" parent="1" source="ExKD6gIADf4nn5UVvq4f-2" target="ExKD6gIADf4nn5UVvq4f-7" edge="1">
          <mxGeometry relative="1" as="geometry"/>
        </mxCell>
        <mxCell id="ExKD6gIADf4nn5UVvq4f-2" value="export{&lt;br&gt;mapChildren as map,&lt;br&gt;forEachChildren as forEach,&lt;br&gt;countChildren as count,&lt;br&gt;onlyChildren as only,&lt;br&gt;toArray,&lt;br&gt;}" style="rounded=0;whiteSpace=wrap;html=1;align=left;" parent="1" vertex="1">
          <mxGeometry x="190" y="20" width="220" height="110" as="geometry"/>
        </mxCell>
        <mxCell id="ExKD6gIADf4nn5UVvq4f-10" value="" style="edgeStyle=orthogonalEdgeStyle;rounded=0;orthogonalLoop=1;jettySize=auto;html=1;" parent="1" source="ExKD6gIADf4nn5UVvq4f-7" target="ExKD6gIADf4nn5UVvq4f-9" edge="1">
          <mxGeometry relative="1" as="geometry"/>
        </mxCell>
        <mxCell id="ExKD6gIADf4nn5UVvq4f-7" value="mapChildren(children, func, context)&lt;br&gt;" style="rounded=0;whiteSpace=wrap;html=1;align=left;" parent="1" vertex="1">
          <mxGeometry x="495" y="49" width="220" height="51" as="geometry"/>
        </mxCell>
        <mxCell id="ExKD6gIADf4nn5UVvq4f-12" value="" style="edgeStyle=orthogonalEdgeStyle;rounded=0;orthogonalLoop=1;jettySize=auto;html=1;" parent="1" source="ExKD6gIADf4nn5UVvq4f-9" target="ExKD6gIADf4nn5UVvq4f-11" edge="1">
          <mxGeometry relative="1" as="geometry"/>
        </mxCell>
        <mxCell id="ExKD6gIADf4nn5UVvq4f-9" value="mapIntoWithKeyPrefixInternal(&lt;br&gt;children&lt;span style=&quot;font-size: 10px&quot;&gt;，&lt;br&gt;&lt;/span&gt;result = [],&lt;br&gt;null,&lt;br&gt;func,&lt;br&gt;context&lt;br&gt;)" style="rounded=0;whiteSpace=wrap;html=1;align=left;" parent="1" vertex="1">
          <mxGeometry x="495" y="180" width="220" height="120" as="geometry"/>
        </mxCell>
        <mxCell id="ExKD6gIADf4nn5UVvq4f-16" value="" style="edgeStyle=orthogonalEdgeStyle;rounded=0;orthogonalLoop=1;jettySize=auto;html=1;" parent="1" source="ExKD6gIADf4nn5UVvq4f-11" target="ExKD6gIADf4nn5UVvq4f-15" edge="1">
          <mxGeometry relative="1" as="geometry"/>
        </mxCell>
        <mxCell id="ExKD6gIADf4nn5UVvq4f-11" value="const travereContext = getPooledTraverseContext(&lt;br&gt;array: result,&lt;br&gt;escapePrefix,&lt;br&gt;func,&lt;br&gt;context&lt;br&gt;)&lt;br&gt;traverseAllChildren(children, mapSingleChildIntoContext, traverseContext)&lt;br&gt;releaseTraverseContext(travereContext)" style="rounded=0;whiteSpace=wrap;html=1;align=left;" parent="1" vertex="1">
          <mxGeometry x="90" y="490" width="625" height="120" as="geometry"/>
        </mxCell>
        <mxCell id="ExKD6gIADf4nn5UVvq4f-18" value="" style="edgeStyle=orthogonalEdgeStyle;rounded=0;orthogonalLoop=1;jettySize=auto;html=1;" parent="1" source="ExKD6gIADf4nn5UVvq4f-15" target="ExKD6gIADf4nn5UVvq4f-17" edge="1">
          <mxGeometry relative="1" as="geometry"/>
        </mxCell>
        <mxCell id="ExKD6gIADf4nn5UVvq4f-15" value="getPooledTraverseContext(mapResult, keyPrefix, mapFunction, mapContext) {&lt;br&gt;return {&lt;br&gt;result: mapResult,&lt;br&gt;keyPrefix: keyPrefix,&lt;br&gt;func: mapFunciton,&lt;br&gt;context: mapContext,&lt;br&gt;count: 0&lt;br&gt;}&lt;br&gt;}&lt;br&gt;function traverseAllChildren(children, callback, traverseContext) {&lt;br&gt;traverseAllChildrenImpl(children, &#39;&#39;, callback, traverseContext)&lt;br&gt;}" style="rounded=0;whiteSpace=wrap;html=1;align=left;" parent="1" vertex="1">
          <mxGeometry x="90" y="660" width="625" height="180" as="geometry"/>
        </mxCell>
        <mxCell id="ExKD6gIADf4nn5UVvq4f-17" value="traverseAllChildrenImpl(children, &#39;&#39;, callback: mapSingleChildIntoContext, traverseContext) {&lt;br&gt;&amp;nbsp; &amp;nbsp;if(typeof children === &#39;object&#39; &amp;amp;&amp;amp; children.$$typeof===&#39;REACTELEMENTTPE&#39;)&lt;br&gt;&amp;nbsp; &amp;nbsp;{&lt;br&gt;&amp;nbsp; &amp;nbsp; &amp;nbsp;callback(traverseContext, children, key)&lt;br&gt;&amp;nbsp; &amp;nbsp;} else {&lt;br&gt;&amp;nbsp; &amp;nbsp; &amp;nbsp; &amp;nbsp; &amp;nbsp; &amp;nbsp; &amp;nbsp; &amp;nbsp;for(var i = 0; i&amp;lt;children.length; i++) {&lt;br&gt;&amp;nbsp; &amp;nbsp; &amp;nbsp; &amp;nbsp; &amp;nbsp; &amp;nbsp; &amp;nbsp; &amp;nbsp;traverseAllChildrenImpl(children[i], &#39;&#39;, callback: mapSingleChildIntoCOntext, traverseContext)&lt;br&gt;&amp;nbsp; &amp;nbsp;}&lt;br&gt;}&lt;br&gt;&lt;br&gt;mapSingleChildIntoContext(bookKeeping: traverseContext, child, childkey) {&lt;br&gt;&amp;nbsp; &amp;nbsp; const { result, keyPrefix, func, context } = bookKeeping;&lt;br&gt;&amp;nbsp; &amp;nbsp; let mappedChild = func.call(context, child, bookKeeping.count++);&lt;br&gt;&amp;nbsp; &amp;nbsp; if(Array.isArray(mapChild)) {&lt;br&gt;&amp;nbsp; &amp;nbsp; &amp;nbsp; &amp;nbsp; mapIntoWithKeyPrefixInternal(mapChild, result, childkey, c=&amp;gt;c)&lt;br&gt;&amp;nbsp; &amp;nbsp; } else {&lt;br&gt;&amp;nbsp; &amp;nbsp; &amp;nbsp; &amp;nbsp; result.push(mappedChild);&lt;br&gt;&amp;nbsp; &amp;nbsp; }&lt;br&gt;}" style="rounded=0;whiteSpace=wrap;html=1;align=left;" parent="1" vertex="1">
          <mxGeometry x="90" y="920" width="625" height="290" as="geometry"/>
        </mxCell>
        <mxCell id="ExKD6gIADf4nn5UVvq4f-23" value="" style="edgeStyle=orthogonalEdgeStyle;rounded=0;orthogonalLoop=1;jettySize=auto;html=1;" parent="1" source="ExKD6gIADf4nn5UVvq4f-21" target="ExKD6gIADf4nn5UVvq4f-17" edge="1">
          <mxGeometry relative="1" as="geometry"/>
        </mxCell>
        <mxCell id="ExKD6gIADf4nn5UVvq4f-21" value="两层for循环，一个是循环children，按照顺序进入mapSingleChldIntoContext，第二个是循环回调函数里的方法，在mapSinglechildIntoContext里遇到array回调mapIntoWidthKeyPrefixInternal" style="rounded=0;whiteSpace=wrap;html=1;" parent="1" vertex="1">
          <mxGeometry x="267.5" y="1260" width="270" height="110" as="geometry"/>
        </mxCell>
        <mxCell id="jtC8XC3cfc17xgPSkci8-1" value="[traverseContext1, traverseContext2]&lt;br&gt;池子里的数组的数量等于回调返回数组的嵌套深度，回调递归一次就会往池子里塞入一个context对象。&lt;br&gt;{&lt;br&gt;result,&lt;br&gt;keyPrefix,&lt;br&gt;func,&lt;br&gt;context,&lt;br&gt;count&lt;br&gt;}" style="ellipse;whiteSpace=wrap;html=1;" vertex="1" parent="1">
          <mxGeometry x="10" y="150" width="350" height="330" as="geometry"/>
        </mxCell>
        <mxCell id="jtC8XC3cfc17xgPSkci8-2" value="pool" style="whiteSpace=wrap;html=1;rounded=1;arcSize=50;align=center;verticalAlign=middle;container=1;recursiveResize=0;strokeWidth=1;autosize=1;spacing=4;treeFolding=1;treeMoving=1;" vertex="1" parent="1">
          <mxGeometry x="376" y="188" width="60" height="30" as="geometry"/>
        </mxCell>
        <mxCell id="jtC8XC3cfc17xgPSkci8-3" value="" style="edgeStyle=entityRelationEdgeStyle;startArrow=none;endArrow=none;segment=10;curved=1;" edge="1" target="jtC8XC3cfc17xgPSkci8-2" parent="1">
          <mxGeometry relative="1" as="geometry">
            <mxPoint x="330" y="230" as="sourcePoint"/>
          </mxGeometry>
        </mxCell>
      </root>
    </mxGraphModel>
  </diagram>
</mxfile>
